<?xml version="1.0" standalone="no"?>
<svg width="64" height="64" viewBox="0 0 426 384" version="1.1" xmlns="http://www.w3.org/2000/svg">
  <path d="M368 351v0l-45 -45c-3 -3 -7 -3 -10 0v0l-11 11v0c-3 3 -3 7 0 10l45 45v0c3 3 8 3 11 0v0v0l10 -10v0c3 -3 3 -8 0 -11v0v0v0zM206 349c-4 0 -8 3 -8 7v0v64c0 4 4 8 8 8v0h14v0c4 0 8 -4 8 -8v-64v0c0 -4 -4 -7 -8 -7v0h-14v0zM426 243v0v-15v0c0 -4 -3 -7 -7 -7v0h-64 c-4 0 -7 3 -7 7v0v15v0c0 4 3 8 7 8h64v0c4 0 7 -4 7 -8zM213 324c60 0 109 -49 109 -109c0 -22 -7 -42 -18 -59c-18 -26 -28 -60 -29 -99c-1 -2 -4 -5 -7 -5h-1v0h-108v0h-1c-3 0 -5 2 -6 4c-1 37 -12 71 -28 96v0c-13 18 -20 39 -20 63c0 60 49 109 109 109zM268 -12 c4 0 7 -3 7 -7v-17c0 -4 -3 -8 -7 -8h-1v0h-108v0h-1c-4 0 -8 4 -8 8v17c0 4 4 7 8 7h1v0h108v0h1zM268 37c4 0 7 -4 7 -8v-17c0 -4 -3 -8 -7 -8l-1 1v-1h-108v1l-1 -1c-4 0 -8 4 -8 8v17v0c0 4 4 8 8 8h1v0h108v0h1zM71 245c4 0 8 -4 8 -8v0v-14v0c0 -4 -4 -8 -8 -8v0h-64 c-4 0 -7 4 -7 8v14c0 4 3 8 7 8h64v0zM60 354c-3 3 -3 7 0 10v0l11 11v0v0c3 3 8 3 11 0l45 -46v0c3 -3 3 -7 0 -10v0l-11 -10v0c-3 -3 -7 -4 -10 -1v0z" transform="matrix(1,0,0,-1,0,384)"/>
</svg>