<?xml version="1.0" standalone="no"?>
<svg width="500" height="500" viewBox="0 0 500 500" version="1.1" xmlns="http://www.w3.org/2000/svg">
  <path d="M153.913,86.006c-83.979,0-152.059,68.079-152.059,152.059c0,83.979,68.079,152.059,152.059,152.059 c83.971,0,152.06-68.079,152.06-152.059C305.973,154.085,237.884,86.006,153.913,86.006z M230.242,187.851 c0,0-81.806,102.899-96.878,121.508c-3.194,3.934-6.797-0.358-6.797-0.358l-50.173-52.291c-3.021-3,0.042-5.354,0.042-5.354 s12.583-12.229,17.458-17.729c2.708-2.313,5.333,1,5.333,1s23.002,21.967,29.733,28.112c1.642,1.472,2.726,0.159,2.726,0.159 s69.669-89.805,73.632-95.072c3.237-4.074,7.394-0.574,7.394-0.574s13.656,10.851,17.531,13.913S230.242,187.851,230.242,187.851z"/>
</svg>