<?xml version="1.0" standalone="no"?>
<svg width="64" height="64" viewBox="0 0 416 384" version="1.1" xmlns="http://www.w3.org/2000/svg">
  <path d="M208 160c45 0 83 -26 102 -64h-204c19 38 57 64 102 64zM208 400c114 0 208 -94 208 -208s-93 -208 -208 -208s-208 94 -208 208s93 208 208 208zM208 26c92 0 166 74 166 166s-74 166 -166 166s-166 -74 -166 -166s74 -166 166 -166zM281 213c-18 0 -31 13 -31 31 s13 31 31 31s31 -13 31 -31s-13 -31 -31 -31zM135 213c-18 0 -31 13 -31 31s13 31 31 31s31 -13 31 -31s-13 -31 -31 -31z" transform="matrix(1,0,0,-1,0,384)"/>
</svg>