<?xml version="1.0" standalone="no"?>
<svg width="64" height="64" viewBox="0 0 384 384" version="1.1" xmlns="http://www.w3.org/2000/svg">
  <path d="M193 288c26 0 50 -10 68 -28s28 -42 28 -68s-10 -50 -28 -68s-42 -28 -68 -28s-50 10 -68 28s-28 42 -28 68s10 50 28 68s42 28 68 28zM193 112c44 0 80 36 80 80s-36 80 -80 80s-80 -36 -80 -80s36 -80 80 -80zM138 365c-10 -3 -20 -7 -30 -12c2 -8 1 -16 0 -24 c-2 -13 -8 -25 -18 -35c-12 -12 -29 -19 -46 -19c-4 0 -9 0 -13 1c-5 -10 -9 -20 -12 -30c7 -4 12 -10 17 -17c8 -11 12 -24 12 -37s-4 -26 -12 -37c-5 -7 -10 -13 -17 -17c3 -10 7 -20 12 -30c4 1 9 1 13 1c17 0 34 -7 46 -19c10 -10 16 -22 18 -35c1 -8 2 -16 0 -24 c10 -5 20 -9 30 -12c4 7 10 12 17 17c11 8 24 12 37 12s26 -4 37 -12c7 -5 13 -10 17 -17c10 3 20 7 30 12c-2 8 -1 16 0 24c2 13 8 25 18 35c12 12 29 19 46 19c4 0 9 0 13 -1c5 10 9 20 12 30c-7 4 -12 10 -17 17c-8 11 -12 24 -12 37s4 26 12 37c5 7 10 13 17 17 c-3 10 -7 20 -12 30c-4 -1 -9 -1 -13 -1c-17 0 -34 7 -46 19c-10 10 -16 22 -18 35c-1 8 -2 16 0 24c-10 5 -20 9 -30 12c-4 -7 -10 -12 -17 -17c-11 -8 -24 -12 -37 -12s-26 4 -37 12c-7 5 -13 10 -17 17zM238 384v0c20 -5 40 -13 57 -24c-8 -18 -5 -40 10 -55 c10 -10 22 -14 35 -14c7 0 14 1 20 4c11 -17 19 -37 24 -57c-19 -7 -32 -25 -32 -46s14 -39 32 -46c-5 -20 -13 -40 -24 -57c-6 3 -13 4 -20 4c-13 0 -25 -4 -35 -14c-15 -15 -18 -37 -10 -55c-17 -11 -37 -19 -57 -24c-7 18 -25 32 -46 32s-39 -14 -46 -32 c-20 5 -40 13 -57 24c8 18 5 40 -10 55c-10 10 -22 14 -35 14c-7 0 -14 -1 -20 -4c-11 17 -19 37 -24 57c18 7 32 25 32 46s-13 39 -32 46c5 20 13 40 24 57c6 -3 13 -4 20 -4c13 0 25 4 35 14c15 15 18 37 10 55c17 11 37 19 57 24c7 -19 25 -32 46 -32s39 13 46 32z" transform="matrix(1,0,0,-1,0,384)"/>
</svg>