<?xml version="1.0" standalone="no"?>
<svg width="64" height="64" viewBox="0 0 512 384" version="1.1" xmlns="http://www.w3.org/2000/svg">
  <path d="M224 416c124 0 224 -100 224 -224s-100 -224 -224 -224s-224 100 -224 224s100 224 224 224zM402 264c-10 24 -23 45 -42 64s-41 32 -65 42l-19 -61c14 -6 27 -15 38 -26s21 -24 27 -38zM224 96c53 0 96 43 96 96s-43 96 -96 96s-96 -43 -96 -96s43 -96 96 -96zM88 328 c-19 -19 -32 -41 -42 -65l61 -19c6 14 15 27 26 38s24 21 38 27l-19 61c-24 -10 -45 -23 -64 -42zM46 120c10 -24 23 -45 42 -64s41 -32 65 -42l19 61c-14 6 -27 15 -38 26s-21 24 -27 38zM360 56c19 19 32 41 42 65l-61 19c-6 -14 -15 -27 -26 -38s-24 -21 -38 -27l19 -61 c24 10 45 23 64 42z" transform="matrix(1,0,0,-1,0,384)"/>
</svg>