<?xml version="1.0" encoding="utf-8"?>
<!-- Generator: Adobe Illustrator 16.0.0, SVG Export Plug-In . SVG Version: 6.00 Build 0)  -->
<!DOCTYPE svg PUBLIC "-//W3C//DTD SVG 1.1//EN" "http://www.w3.org/Graphics/SVG/1.1/DTD/svg11.dtd">
<svg version="1.1" id="图层_1" xmlns="http://www.w3.org/2000/svg" xmlns:xlink="http://www.w3.org/1999/xlink" x="0px" y="0px"
	 width="200px" height="200px" viewBox="0 0 200 200" enable-background="new 0 0 200 200" xml:space="preserve">
<path d="M100.237,0.06c-55.228,0-100,44.771-100,100s44.771,100,100,100c55.234,0,100.005-44.771,100.005-100
	C200.242,44.831,155.471,0.06,100.237,0.06z M135.204,117.743c-0.216,4.601-1.164,9.354-2.823,14.136
	c-1.699,4.881-4.291,8.979-7.703,12.18c-3.382,3.164-7.539,5.728-12.361,7.615c-3.984,1.559-8.504,2.35-13.435,2.35
	c-1.092,0-2.224-0.039-3.362-0.115c-6.351-0.418-12.461-2.771-18.16-6.995c-5.765-4.265-9.752-11.538-11.849-21.618l-0.286-1.375
	l13.793-3.831l0.382,1.478c2.665,10.299,7.184,16.078,13.433,17.181c6.502,1.147,11.791,0.501,15.707-1.931
	c3.979-2.459,6.854-5.715,8.553-9.676c1.729-4.033,2.509-8.634,2.317-13.673c-0.196-4.959-1.536-9.192-3.983-12.585
	c-2.435-3.364-5.555-5.637-9.27-6.753c-3.79-1.137-8.139-1.129-12.93,0.022c-4.764,1.142-8.567,3.744-11.629,7.956l-0.517,0.709
	l-13.06-1.537l0.581-1.746c0.784-2.36,4.665-19.938,11.534-52.246l0.253-1.188h50.855v13.969H91.99
	c-1.662,8.815-3.336,16.212-4.99,22.06c5.203-2.047,10.159-2.992,14.771-2.818c5.455,0.217,10.771,1.492,15.801,3.791
	c5.138,2.358,8.951,5.639,11.339,9.752c2.293,3.979,3.983,7.997,5.026,11.948C134.984,108.807,135.41,113.159,135.204,117.743z"/>
</svg>
