<?xml version="1.0" standalone="no"?>
<svg width="64" height="64" viewBox="0 0 1024 768" version="1.1" xmlns="http://www.w3.org/2000/svg">
  <path d="M512 597q-90 0 -151.5 -61.5t-61.5 -151.5t61.5 -151.5t151.5 -61.5t151.5 61.5t61.5 151.5t-61.5 151.5t-151.5 61.5zM512 811q-115 0 -213.5 -57.5t-156 -156t-57.5 -213.5t57.5 -213.5t156 -156t213.5 -57.5t213.5 57.5t156 156t57.5 213.5t-57.5 213.5t-156 156    t-213.5 57.5zM512 43q-92 0 -171 45.5t-124.5 124.5t-45.5 171t45.5 171t124.5 124.5t171 45.5t171 -45.5t124.5 -124.5t45.5 -171t-45.5 -171t-124.5 -124.5t-171 -45.5z" transform="matrix(1,0,0,-1,0,768)"/>
</svg>