<?xml version="1.0" standalone="no"?>
<svg width="64" height="64" viewBox="0 0 288 384" version="1.1" xmlns="http://www.w3.org/2000/svg">
  <path d="M144 400c-34 0 -67 -13 -91 -37s-37 -57 -37 -91c0 -43 24 -107 70 -186c22 -38 44 -72 58 -91c14 19 36 53 58 91c46 79 70 143 70 186c0 34 -13 67 -37 91s-57 37 -91 37zM144 416v0c80 0 144 -64 144 -144c0 -112 -144 -304 -144 -304s-144 192 -144 304 c0 80 64 144 144 144zM144 336c35 0 64 -29 64 -64s-29 -64 -64 -64s-64 29 -64 64s29 64 64 64zM144 225c26 0 47 21 47 47s-21 47 -47 47s-47 -21 -47 -47s21 -47 47 -47z" transform="matrix(1,0,0,-1,0,384)"/>
</svg>