<?xml version="1.0" standalone="no"?>
<svg width="64" height="64" viewBox="0 0 512 384" version="1.1" xmlns="http://www.w3.org/2000/svg">
  <path d="M256 400c115 0 208 -93 208 -208c0 -14 -1 -28 -4 -42l-1 -4l-24 5l1 4c2 12 4 24 4 37c0 101 -83 184 -184 184c-66 0 -127 -36 -160 -94l-2 -3l-21 11l2 4c37 65 106 106 181 106zM416 102l2 3l21 -11l-2 -4c-37 -65 -106 -106 -181 -106c-115 0 -208 93 -208 208 c0 14 1 28 4 42l1 4l24 -5l-1 -4c-2 -12 -4 -24 -4 -37c0 -101 83 -184 184 -184c66 0 127 36 160 94zM384 192h128l-64 -64zM0 192l64 64l64 -64h-128z" transform="matrix(1,0,0,-1,0,384)"/>
</svg>